# Blender v2.70 (sub 0) OBJ File: 'mannequin.blend'
# www.blender.org
o Circle.007
v 0.196387 -0.169026 -0.196386
v 0.256591 -0.169026 -0.106284
v 0.277733 -0.169026 0.000000
v 0.256591 -0.169026 0.106284
v 0.196387 -0.169026 0.196387
v 0.106284 -0.169026 0.256591
v 0.000000 -0.169026 0.277733
v -0.106283 -0.169026 0.256591
v -0.196386 -0.169026 0.196387
v -0.256591 -0.169026 0.106284
v -0.277732 -0.169026 0.000000
v -0.256591 -0.169026 -0.106284
v -0.196386 -0.169026 -0.196387
v -0.106283 -0.169026 -0.256591
v 0.000000 -0.169026 -0.277732
v 0.106284 -0.169026 -0.256591
v 0.174334 -2.451802 -0.174333
v 0.227778 -2.451802 -0.094349
v 0.246545 -2.451802 0.000000
v 0.227778 -2.451802 0.094349
v 0.174334 -2.451802 0.174333
v 0.094349 -2.451802 0.227778
v 0.000000 -2.451802 0.246545
v -0.094348 -2.451802 0.227778
v -0.174333 -2.451802 0.174334
v -0.227777 -2.451802 0.094349
v -0.246545 -2.451802 0.000000
v -0.227777 -2.451802 -0.094349
v -0.174333 -2.451802 -0.174334
v -0.094348 -2.451802 -0.227778
v 0.000000 -2.451802 -0.246545
v 0.094349 -2.451802 -0.227778
v 0.304161 -0.772602 -0.125988
v 0.232795 -0.772602 -0.232795
v 0.329222 -0.772602 0.000000
v 0.304161 -0.772602 0.125988
v 0.232795 -0.772602 0.232795
v 0.125988 -0.772602 0.304161
v 0.000000 -0.772602 0.329222
v -0.125988 -0.772602 0.304161
v -0.232795 -0.772602 0.232795
v -0.304161 -0.772602 0.125988
v -0.329222 -0.772602 0.000000
v -0.304161 -0.772602 -0.125988
v -0.232795 -0.772602 -0.232795
v -0.125987 -0.772602 -0.304161
v 0.000000 -0.772602 -0.329222
v 0.125988 -0.772602 -0.304161
v 0.259882 -1.805870 -0.107647
v 0.198905 -1.805870 -0.198905
v 0.281294 -1.805870 0.000000
v 0.259882 -1.805870 0.107647
v 0.198905 -1.805870 0.198905
v 0.107647 -1.805870 0.259882
v 0.000000 -1.805870 0.281294
v -0.107646 -1.805870 0.259882
v -0.198905 -1.805870 0.198905
v -0.259882 -1.805870 0.107647
v -0.281294 -1.805870 0.000000
v -0.259882 -1.805870 -0.107647
v -0.198905 -1.805870 -0.198905
v -0.107646 -1.805870 -0.259882
v 0.000000 -1.805870 -0.281294
v 0.107647 -1.805870 -0.259882
v 0.286204 -1.183571 -0.118550
v 0.219051 -1.183571 -0.219051
v 0.309785 -1.183571 0.000000
v 0.286204 -1.183571 0.118550
v 0.219051 -1.183571 0.219051
v 0.118550 -1.183571 0.286204
v 0.000000 -1.183571 0.309785
v -0.118549 -1.183571 0.286204
v -0.219051 -1.183571 0.219051
v -0.286204 -1.183571 0.118550
v -0.309785 -1.183571 0.000000
v -0.286204 -1.183571 -0.118550
v -0.219051 -1.183571 -0.219051
v -0.118549 -1.183571 -0.286204
v 0.000000 -1.183571 -0.309785
v 0.118550 -1.183571 -0.286204
v 0.294730 -0.513637 -0.122081
v 0.225577 -0.513637 -0.225577
v 0.319014 -0.513637 0.000000
v 0.294730 -0.513637 0.122081
v 0.225577 -0.513637 0.225577
v 0.122081 -0.513637 0.294730
v 0.000000 -0.513637 0.319014
v -0.122081 -0.513637 0.294730
v -0.225576 -0.513637 0.225577
v -0.294730 -0.513637 0.122081
v -0.319014 -0.513637 0.000000
v -0.294730 -0.513637 -0.122081
v -0.225576 -0.513637 -0.225577
v -0.122081 -0.513637 -0.294730
v 0.000000 -0.513637 -0.319014
v 0.122082 -0.513637 -0.294730
vt 0.000078 0.620083
vt 0.000020 0.581154
vt 0.282919 0.583987
vt 0.282941 0.051450
vt 0.000039 0.059906
vt 0.000111 0.030111
vt 0.000000 0.098835
vt 0.282897 0.143941
vt 0.000000 0.140972
vt 0.282941 0.188357
vt 0.000039 0.179901
vt 0.000111 0.209696
vt 0.282919 0.295669
vt 0.000020 0.298503
vt 0.000078 0.259574
vt 0.282895 0.343745
vt 0.000000 0.340640
vt 0.000020 0.379569
vt 0.000078 0.409364
vt 0.282919 0.388161
vt 0.000000 0.698898
vt 0.000039 0.659969
vt 0.282941 0.651512
vt 0.000000 0.741035
vt 0.282897 0.695928
vt 0.282941 0.788420
vt 0.000039 0.779964
vt 0.282919 0.491496
vt 0.000020 0.500088
vt 0.000078 0.470293
vt 0.282895 0.535912
vt 0.000000 0.539017
vt 0.555544 0.635206
vt 0.555471 0.586291
vt 0.735466 0.587865
vt 0.282984 0.628403
vt 0.555497 0.044517
vt 0.555588 0.007079
vt 0.735590 0.000000
vt 0.283023 0.017455
vt 0.555449 0.093431
vt 0.735494 0.039787
vt 0.282897 0.095866
vt 0.735442 0.091770
vt 0.735442 0.148037
vt 0.555449 0.146376
vt 0.735494 0.200021
vt 0.555498 0.195291
vt 0.555588 0.232728
vt 0.283023 0.222352
vt 0.555471 0.293366
vt 0.555544 0.244451
vt 0.735543 0.239807
vt 0.282984 0.251253
vt 0.735439 0.348058
vt 0.555446 0.346310
vt 0.555472 0.395225
vt 0.555544 0.432663
vt 0.735466 0.400042
vt 0.282984 0.422156
vt 0.555449 0.693494
vt 0.555498 0.644579
vt 0.735494 0.639849
vt 0.735442 0.748100
vt 0.555449 0.746439
vt 0.282897 0.744004
vt 0.735494 0.800083
vt 0.555498 0.795353
vt 0.735466 0.479615
vt 0.555472 0.484431
vt 0.555544 0.446994
vt 0.735439 0.531599
vt 0.555446 0.533346
vt 0.848908 0.586939
vt 0.848983 0.637310
vt 0.735543 0.639849
vt 0.999897 0.583338
vt 0.999962 0.627192
vt 0.848935 0.042271
vt 0.849028 0.003718
vt 1.000000 0.018753
vt 0.848885 0.092643
vt 0.999919 0.052317
vt 0.999875 0.143637
vt 0.848885 0.147165
vt 0.848935 0.197537
vt 0.849028 0.236090
vt 0.999919 0.187491
vt 0.735590 0.239807
vt 0.848908 0.292718
vt 0.848983 0.242346
vt 0.999962 0.252464
vt 0.735466 0.291791
vt 0.999874 0.343785
vt 0.848882 0.347240
vt 0.848908 0.397612
vt 0.999962 0.421203
vt 0.848983 0.436165
vt 0.735543 0.439828
vt 0.848885 0.692705
vt 0.848935 0.642333
vt 0.999919 0.652379
vt 0.735442 0.691833
vt 0.999875 0.743700
vt 0.848885 0.747227
vt 0.999919 0.787553
vt 0.848935 0.797599
vt 0.999897 0.492018
vt 0.848908 0.482045
vt 0.848983 0.443492
vt 0.999874 0.535872
vt 0.848882 0.532417
vt 0.282984 0.457501
vt 0.999875 0.096170
vt 1.000000 0.221055
vt 0.999897 0.296318
vt 0.999897 0.387638
vt 0.999875 0.696233
vt 0.999962 0.458454
vn 0.922545 -0.053720 -0.382131
vn 0.706086 -0.053720 -0.706085
vn 0.706229 -0.049684 -0.706229
vn 0.998749 -0.049684 0.000000
vn 0.998556 -0.053720 -0.000000
vn 0.922545 -0.053720 0.382131
vn 0.706229 -0.049684 0.706229
vn 0.706086 -0.053720 0.706086
vn 0.382183 -0.049684 0.922727
vn 0.382131 -0.053720 0.922545
vn 0.000000 -0.053720 0.998556
vn -0.382183 -0.049684 0.922727
vn -0.382131 -0.053720 0.922546
vn -0.706229 -0.049684 0.706229
vn -0.706086 -0.053720 0.706086
vn -0.922545 -0.053720 0.382131
vn -0.998556 -0.053720 0.000000
vn -0.922727 -0.049684 0.382183
vn -0.922545 -0.053720 -0.382131
vn -0.998749 -0.049684 0.000000
vn -0.706086 -0.053720 -0.706086
vn -0.922727 -0.049684 -0.382183
vn -0.382183 -0.049684 -0.922727
vn -0.382130 -0.053720 -0.922546
vn 0.000000 -0.049684 -0.998749
vn 0.000000 -0.053720 -0.998556
vn 0.382183 -0.049684 -0.922727
vn 0.382132 -0.053720 -0.922545
vn 0.922880 -0.046480 -0.382244
vn 0.706320 -0.046480 -0.706320
vn 0.707083 -0.003906 -0.707083
vn 0.922727 -0.049684 -0.382183
vn 0.998901 -0.046480 0.000000
vn 0.923856 -0.003906 -0.382672
vn 0.922880 -0.046480 0.382244
vn 0.999969 -0.003906 0.000000
vn 0.922727 -0.049684 0.382183
vn 0.923856 -0.003906 0.382672
vn 0.707083 -0.003906 0.707083
vn 0.706320 -0.046480 0.706320
vn 0.382672 -0.003906 0.923856
vn 0.382244 -0.046480 0.922880
vn 0.000000 -0.046480 0.998901
vn 0.000000 -0.049684 0.998749
vn -0.382244 -0.046480 0.922880
vn 0.000000 -0.003906 0.999969
vn -0.707083 -0.003906 0.707083
vn -0.706320 -0.046480 0.706320
vn -0.922880 -0.046480 0.382244
vn -0.998901 -0.046480 0.000000
vn -0.923856 -0.003906 0.382672
vn -0.922880 -0.046480 -0.382244
vn -0.999969 -0.003906 0.000000
vn -0.707083 -0.003906 -0.707083
vn -0.706320 -0.046480 -0.706320
vn -0.706229 -0.049684 -0.706229
vn -0.382672 -0.003906 -0.923856
vn -0.382244 -0.046480 -0.922880
vn 0.000000 -0.003906 -0.999969
vn 0.000000 -0.046480 -0.998901
vn 0.382672 -0.003906 -0.923856
vn 0.382244 -0.046480 -0.922880
vn 0.704886 0.078829 -0.704886
vn 0.920988 0.078829 -0.381481
vn 0.702088 0.118940 -0.702087
vn 0.917321 0.118940 -0.379967
vn 0.996887 0.078829 0.000000
vn 0.920988 0.078829 0.381481
vn 0.992901 0.118940 -0.000000
vn 0.702087 0.118940 0.702087
vn 0.704886 0.078829 0.704886
vn 0.381481 0.078829 0.920988
vn 0.000000 0.078829 0.996887
vn 0.379967 0.118940 0.917321
vn -0.381481 0.078829 0.920988
vn 0.000000 0.118940 0.992901
vn -0.382672 -0.003906 0.923856
vn -0.702087 0.118940 0.702087
vn -0.704886 0.078829 0.704886
vn -0.920988 0.078829 0.381481
vn -0.992901 0.118940 0.000000
vn -0.996887 0.078829 0.000000
vn -0.920988 0.078829 -0.381481
vn -0.923856 -0.003906 -0.382672
vn -0.702087 0.118940 -0.702088
vn -0.704886 0.078829 -0.704886
vn -0.379966 0.118940 -0.917322
vn -0.381481 0.078829 -0.920988
vn 0.000001 0.118940 -0.992901
vn 0.000000 0.078829 -0.996887
vn 0.379968 0.118940 -0.917321
vn 0.381481 0.078829 -0.920988
vn 0.917321 0.118940 0.379967
vn -0.379967 0.118940 0.917321
vn -0.917321 0.118940 0.379967
vn -0.917321 0.118940 -0.379967
s 1
f 18/1/1 17/2/2 50/3/3
f 51/4/4 19/5/5 18/6/1
f 20/7/6 19/5/5 51/4/4
f 53/8/7 21/9/8 20/7/6
f 54/10/9 22/11/10 21/9/8
f 23/12/11 22/11/10 54/10/9
f 56/13/12 24/14/13 23/15/11
f 57/16/14 25/17/15 24/14/13
f 26/18/16 25/17/15 57/16/14
f 27/19/17 26/18/16 58/20/18
f 28/21/19 27/22/17 59/23/20
f 29/24/21 28/21/19 60/25/22
f 62/26/23 30/27/24 29/24/21
f 63/28/25 31/29/26 30/30/24
f 63/28/25 64/31/27 32/32/28
f 17/2/2 32/32/28 64/31/27
f 65/33/29 66/34/30 34/35/31
f 65/33/29 49/36/32 50/3/3
f 67/37/33 65/38/29 33/39/34
f 51/4/4 49/40/32 65/38/29
f 68/41/35 67/37/33 35/42/36
f 52/43/37 51/4/4 67/37/33
f 36/44/38 37/45/39 69/46/40
f 69/46/40 53/8/7 52/43/37
f 38/47/41 70/48/42 69/46/40
f 54/10/9 53/8/7 69/46/40
f 71/49/43 70/48/42 38/47/41
f 71/49/43 55/50/44 54/10/9
f 72/51/45 71/52/43 39/53/46
f 56/13/12 55/54/44 71/52/43
f 41/55/47 73/56/48 72/51/45
f 73/56/48 57/16/14 56/13/12
f 74/57/49 73/56/48 41/55/47
f 58/20/18 57/16/14 73/56/48
f 75/58/50 74/57/49 42/59/51
f 59/60/20 58/20/18 74/57/49
f 76/61/52 75/62/50 43/63/53
f 76/61/52 60/25/22 59/23/20
f 45/64/54 77/65/55 76/61/52
f 61/66/56 60/25/22 76/61/52
f 46/67/57 78/68/58 77/65/55
f 78/68/58 62/26/23 61/66/56
f 47/69/59 79/70/60 78/71/58
f 78/71/58 79/70/60 63/28/25
f 47/69/59 48/72/61 80/73/62
f 79/70/60 80/73/62 64/31/27
f 34/35/31 66/34/30 80/73/62
f 50/3/3 64/31/27 80/73/62
f 82/74/63 81/75/64 33/76/34
f 82/74/63 1/77/65 2/78/66
f 83/79/67 81/80/64 2/81/66
f 83/79/67 35/42/36 33/39/34
f 84/82/68 83/79/67 3/83/69
f 36/44/38 35/42/36 83/79/67
f 5/84/70 85/85/71 84/82/68
f 85/85/71 37/45/39 36/44/38
f 86/86/72 85/85/71 5/84/70
f 38/47/41 37/45/39 85/85/71
f 87/87/73 86/86/72 6/88/74
f 87/87/73 39/89/46 38/47/41
f 88/90/75 87/91/73 7/92/76
f 40/93/77 39/53/46 87/91/73
f 9/94/78 89/95/79 88/90/75
f 88/90/75 89/95/79 41/55/47
f 90/96/80 89/95/79 9/94/78
f 42/59/51 41/55/47 89/95/79
f 11/97/81 91/98/82 90/96/80
f 43/99/53 42/59/51 90/96/80
f 92/100/83 91/101/82 11/102/81
f 92/100/83 44/103/84 43/63/53
f 13/104/85 93/105/86 92/100/83
f 45/64/54 44/103/84 92/100/83
f 14/106/87 94/107/88 93/105/86
f 94/107/88 46/67/57 45/64/54
f 15/108/89 95/109/90 94/110/88
f 95/109/90 47/69/59 46/99/57
f 16/111/91 96/112/92 95/109/90
f 96/112/92 48/72/61 47/69/59
f 82/74/63 96/112/92 16/111/91
f 82/74/63 34/35/31 48/72/61
f 49/36/32 18/1/1 50/3/3
f 49/40/32 51/4/4 18/6/1
f 52/43/37 20/7/6 51/4/4
f 52/43/37 53/8/7 20/7/6
f 53/8/7 54/10/9 21/9/8
f 55/50/44 23/12/11 54/10/9
f 55/54/44 56/13/12 23/15/11
f 56/13/12 57/16/14 24/14/13
f 58/20/18 26/18/16 57/16/14
f 59/60/20 27/19/17 58/20/18
f 60/25/22 28/21/19 59/23/20
f 61/66/56 29/24/21 60/25/22
f 61/66/56 62/26/23 29/24/21
f 62/113/23 63/28/25 30/30/24
f 31/29/26 63/28/25 32/32/28
f 50/3/3 17/2/2 64/31/27
f 33/76/34 65/33/29 34/35/31
f 66/34/30 65/33/29 50/3/3
f 35/42/36 67/37/33 33/39/34
f 67/37/33 51/4/4 65/38/29
f 36/44/38 68/41/35 35/42/36
f 68/41/35 52/43/37 67/37/33
f 68/41/35 36/44/38 69/46/40
f 68/41/35 69/46/40 52/43/37
f 37/45/39 38/47/41 69/46/40
f 70/48/42 54/10/9 69/46/40
f 39/89/46 71/49/43 38/47/41
f 70/48/42 71/49/43 54/10/9
f 40/93/77 72/51/45 39/53/46
f 72/51/45 56/13/12 71/52/43
f 40/93/77 41/55/47 72/51/45
f 72/51/45 73/56/48 56/13/12
f 42/59/51 74/57/49 41/55/47
f 74/57/49 58/20/18 73/56/48
f 43/99/53 75/58/50 42/59/51
f 75/58/50 59/60/20 74/57/49
f 44/103/84 76/61/52 43/63/53
f 75/62/50 76/61/52 59/23/20
f 44/103/84 45/64/54 76/61/52
f 77/65/55 61/66/56 76/61/52
f 45/64/54 46/67/57 77/65/55
f 77/65/55 78/68/58 61/66/56
f 46/99/57 47/69/59 78/71/58
f 62/113/23 78/71/58 63/28/25
f 79/70/60 47/69/59 80/73/62
f 63/28/25 79/70/60 64/31/27
f 48/72/61 34/35/31 80/73/62
f 66/34/30 50/3/3 80/73/62
f 34/35/31 82/74/63 33/76/34
f 81/75/64 82/74/63 2/78/66
f 3/83/69 83/79/67 2/81/66
f 81/80/64 83/79/67 33/39/34
f 4/114/93 84/82/68 3/83/69
f 84/82/68 36/44/38 83/79/67
f 4/114/93 5/84/70 84/82/68
f 84/82/68 85/85/71 36/44/38
f 6/88/74 86/86/72 5/84/70
f 86/86/72 38/47/41 85/85/71
f 7/115/76 87/87/73 6/88/74
f 86/86/72 87/87/73 38/47/41
f 8/116/94 88/90/75 7/92/76
f 88/90/75 40/93/77 87/91/73
f 8/116/94 9/94/78 88/90/75
f 40/93/77 88/90/75 41/55/47
f 10/117/95 90/96/80 9/94/78
f 90/96/80 42/59/51 89/95/79
f 10/117/95 11/97/81 90/96/80
f 91/98/82 43/99/53 90/96/80
f 12/118/96 92/100/83 11/102/81
f 91/101/82 92/100/83 43/63/53
f 12/118/96 13/104/85 92/100/83
f 93/105/86 45/64/54 92/100/83
f 13/104/85 14/106/87 93/105/86
f 93/105/86 94/107/88 45/64/54
f 14/119/87 15/108/89 94/110/88
f 94/110/88 95/109/90 46/99/57
f 15/108/89 16/111/91 95/109/90
f 95/109/90 96/112/92 47/69/59
f 1/77/65 82/74/63 16/111/91
f 96/112/92 82/74/63 48/72/61
