# Blender v2.70 (sub 0) OBJ File: 'mannequin.blend'
# www.blender.org
o Circle.004
v 0.208984 -0.120251 -0.208984
v 0.273051 -0.120251 -0.113102
v 0.295549 -0.120251 0.000000
v 0.273051 -0.120251 0.113102
v 0.208984 -0.120251 0.208984
v 0.113102 -0.120251 0.273051
v 0.000000 -0.120251 0.295549
v -0.113101 -0.120251 0.273051
v -0.208984 -0.120251 0.208984
v -0.273051 -0.120251 0.113102
v -0.295548 -0.120251 0.000000
v -0.273051 -0.120251 -0.113102
v -0.208984 -0.120251 -0.208985
v -0.113101 -0.120251 -0.273051
v 0.000000 -0.120251 -0.295549
v 0.113102 -0.120251 -0.273051
v 0.126558 -3.093237 -0.126558
v 0.165357 -3.093237 -0.068493
v 0.178981 -3.093237 0.000000
v 0.165357 -3.093237 0.068493
v 0.126558 -3.093237 0.126558
v 0.068493 -3.093237 0.165356
v 0.000000 -3.093237 0.178981
v -0.068493 -3.093237 0.165357
v -0.126558 -3.093237 0.126558
v -0.165356 -3.093237 0.068493
v -0.178980 -3.093237 0.000000
v -0.165356 -3.093237 -0.068493
v -0.126558 -3.093237 -0.126558
v -0.068493 -3.093237 -0.165356
v 0.000000 -3.093237 -0.178981
v 0.068493 -3.093237 -0.165356
v 0.355367 -0.816666 -0.147198
v 0.271986 -0.816666 -0.271986
v 0.384647 -0.816666 0.000000
v 0.355367 -0.816666 0.147198
v 0.271986 -0.816666 0.271986
v 0.147198 -0.816666 0.355367
v 0.000000 -0.816666 0.384647
v -0.147198 -0.816666 0.355367
v -0.271986 -0.816666 0.271986
v -0.355367 -0.816666 0.147198
v -0.384647 -0.816666 0.000000
v -0.355367 -0.816666 -0.147198
v -0.271986 -0.816666 -0.271986
v -0.147198 -0.816666 -0.355367
v 0.000000 -0.816666 -0.384647
v 0.147198 -0.816666 -0.355367
v 0.258959 -2.100504 -0.107264
v 0.198198 -2.100504 -0.198198
v 0.280295 -2.100504 0.000000
v 0.258959 -2.100504 0.107264
v 0.198198 -2.100504 0.198198
v 0.107264 -2.100504 0.258959
v 0.000000 -2.100504 0.280295
v -0.107264 -2.100504 0.258959
v -0.198198 -2.100504 0.198198
v -0.258958 -2.100504 0.107264
v -0.280295 -2.100504 0.000000
v -0.258958 -2.100504 -0.107264
v -0.198198 -2.100504 -0.198198
v -0.107264 -2.100504 -0.258959
v 0.000000 -2.100504 -0.280295
v 0.107264 -2.100504 -0.258959
v 0.323538 -1.290848 -0.134014
v 0.247626 -1.290848 -0.247626
v 0.350195 -1.290848 0.000000
v 0.323538 -1.290848 0.134014
v 0.247626 -1.290848 0.247626
v 0.134014 -1.290848 0.323538
v 0.000000 -1.290848 0.350195
v -0.134014 -1.290848 0.323538
v -0.247625 -1.290848 0.247626
v -0.323538 -1.290848 0.134014
v -0.350195 -1.290848 0.000000
v -0.323538 -1.290848 -0.134014
v -0.247625 -1.290848 -0.247626
v -0.134014 -1.290848 -0.323538
v 0.000000 -1.290848 -0.350195
v 0.134014 -1.290848 -0.323538
v 0.344349 -0.517868 -0.142634
v 0.263553 -0.517868 -0.263553
v 0.372720 -0.517868 0.000000
v 0.344349 -0.517868 0.142634
v 0.263553 -0.517868 0.263553
v 0.142634 -0.517868 0.344349
v 0.000000 -0.517868 0.372720
v -0.142634 -0.517868 0.344349
v -0.263553 -0.517868 0.263553
v -0.344349 -0.517868 0.142634
v -0.372720 -0.517868 0.000000
v -0.344349 -0.517868 -0.142634
v -0.263553 -0.517868 -0.263553
v -0.142634 -0.517868 -0.344349
v 0.000000 -0.517868 -0.372720
v 0.142634 -0.517868 -0.344349
vt 0.553764 0.024254
vt 0.831357 0.047801
vt 0.831272 0.061605
vt 0.831257 0.426322
vt 0.831325 0.444357
vt 0.553704 0.460430
vt 0.831234 0.406801
vt 0.553598 0.432186
vt 0.553598 0.373371
vt 0.831257 0.388766
vt 0.553704 0.351753
vt 0.831325 0.374962
vt 0.962565 0.834640
vt 0.944593 0.836155
vt 0.906300 0.560718
vt 0.964914 0.555856
vt 0.982021 0.833050
vt 0.993070 0.553628
vt 1.000000 0.831627
vt 0.831258 0.267108
vt 0.831325 0.280911
vt 0.553705 0.304121
vt 0.553561 0.254260
vt 0.831234 0.249073
vt 0.553598 0.223688
vt 0.831257 0.229552
vt 0.831325 0.211516
vt 0.553632 0.132930
vt 0.831272 0.117196
vt 0.831357 0.131000
vt 0.553560 0.104686
vt 0.831226 0.099161
vt 0.553560 0.074115
vt 0.831226 0.079640
vt 0.194797 0.000000
vt 0.327377 0.008007
vt 0.327211 0.035015
vt 0.553632 0.045871
vt 0.327165 0.436274
vt 0.327297 0.471562
vt 0.194708 0.477074
vt 0.327118 0.398079
vt 0.194562 0.438315
vt 0.553561 0.401615
vt 0.194562 0.357603
vt 0.327164 0.362791
vt 0.877040 0.335934
vt 0.850135 0.338298
vt 0.831357 0.206811
vt 0.884765 0.562611
vt 0.899531 0.200959
vt 0.912203 0.332970
vt 0.934444 0.558346
vt 0.941344 0.197542
vt 0.950271 0.329860
vt 0.979983 0.194484
vt 0.985449 0.327075
vt 0.327165 0.293084
vt 0.327297 0.320092
vt 0.194708 0.327938
vt 0.553598 0.282504
vt 0.194511 0.259513
vt 0.327118 0.257796
vt 0.194562 0.217560
vt 0.327165 0.219601
vt 0.194708 0.178801
vt 0.327297 0.184313
vt 0.553704 0.195444
vt 0.194616 0.149136
vt 0.327211 0.143786
vt 0.327377 0.170794
vt 0.553764 0.154547
vt 0.194517 0.110377
vt 0.327122 0.108498
vt 0.194517 0.068424
vt 0.327122 0.070303
vt 0.111111 0.031517
vt 0.111287 0.002772
vt 0.000076 0.043502
vt 0.000215 0.020708
vt 0.111060 0.437766
vt 0.111201 0.475324
vt 0.000151 0.463475
vt 0.111010 0.397115
vt 0.000039 0.433693
vt 0.194511 0.396362
vt 0.000039 0.371677
vt 0.111059 0.359557
vt 0.111201 0.330812
vt 0.893379 0.117682
vt 0.855954 0.120835
vt 0.858856 0.009193
vt 0.860908 0.204214
vt 0.933895 0.114371
vt 0.888532 0.006692
vt 0.950348 0.001717
vt 0.971336 0.111407
vt 0.973077 0.000000
vt 1.000000 0.109242
vt 0.194562 0.298272
vt 0.111201 0.325064
vt 0.111010 0.258761
vt 0.111060 0.296319
vt 0.000039 0.284199
vt 0.000039 0.222182
vt 0.111059 0.218109
vt 0.111201 0.180552
vt 0.000076 0.135299
vt 0.111111 0.147284
vt 0.111287 0.176029
vt 0.194797 0.178801
vt 0.000000 0.105518
vt 0.111015 0.109727
vt 0.000000 0.073283
vt 0.111015 0.069075
vt 0.194616 0.029665
vt 0.000000 0.401459
vt 0.000151 0.348884
vt 0.920660 0.004067
vt 0.000000 0.254417
vt 0.000151 0.192401
vt 0.000215 0.158093
vn 0.919797 -0.093661 -0.380993
vn 0.919105 -0.101528 -0.380706
vn 0.703453 -0.101528 -0.703453
vn 0.994833 -0.101528 -0.000000
vn 0.919105 -0.101528 0.380706
vn 0.995575 -0.093661 0.000000
vn 0.703970 -0.093661 0.703970
vn 0.703453 -0.101528 0.703453
vn 0.380993 -0.093661 0.919797
vn 0.380706 -0.101528 0.919105
vn 0.000000 -0.101528 0.994833
vn -0.380993 -0.093661 0.919797
vn -0.380706 -0.101528 0.919106
vn -0.703970 -0.093661 0.703970
vn -0.703453 -0.101528 0.703453
vn -0.919105 -0.101528 0.380706
vn -0.995575 -0.093661 0.000000
vn -0.994833 -0.101528 0.000000
vn -0.919797 -0.093661 -0.380993
vn -0.919105 -0.101528 -0.380706
vn -0.703453 -0.101528 -0.703453
vn -0.380993 -0.093661 -0.919797
vn -0.380705 -0.101529 -0.919106
vn 0.000000 -0.093661 -0.995575
vn 0.000000 -0.101529 -0.994833
vn 0.380993 -0.093661 -0.919797
vn 0.380706 -0.101529 -0.919105
vn 0.923734 -0.016175 -0.382611
vn 0.920957 -0.079165 -0.381481
vn 0.704886 -0.079165 -0.704886
vn 0.703970 -0.093661 -0.703970
vn 0.996857 -0.079165 0.000000
vn 0.920957 -0.079165 0.381481
vn 0.999847 -0.016175 0.000000
vn 0.919797 -0.093661 0.380993
vn 0.706992 -0.016175 0.706992
vn 0.704886 -0.079165 0.704886
vn 0.381481 -0.079165 0.920957
vn 0.000000 -0.016175 0.999847
vn 0.000000 -0.079165 0.996857
vn 0.000000 -0.093661 0.995575
vn -0.382611 -0.016175 0.923734
vn -0.381481 -0.079165 0.920957
vn -0.706992 -0.016175 0.706992
vn -0.704886 -0.079165 0.704886
vn -0.920957 -0.079165 0.381481
vn -0.919797 -0.093661 0.380993
vn -0.999847 -0.016175 0.000000
vn -0.996857 -0.079165 0.000000
vn -0.923734 -0.016175 -0.382611
vn -0.920957 -0.079165 -0.381481
vn -0.706992 -0.016175 -0.706992
vn -0.704886 -0.079165 -0.704886
vn -0.703970 -0.093661 -0.703970
vn -0.382611 -0.016175 -0.923734
vn -0.381481 -0.079165 -0.920957
vn 0.000000 -0.016175 -0.999847
vn 0.000000 -0.079165 -0.996857
vn 0.382611 -0.016175 -0.923734
vn 0.381481 -0.079165 -0.920957
vn 0.702445 0.114444 -0.702445
vn 0.917783 0.114444 -0.380139
vn 0.694154 0.190530 -0.694153
vn 0.906955 0.190530 -0.375674
vn 0.993408 0.114444 0.000000
vn 0.917783 0.114444 0.380139
vn 0.981681 0.190530 -0.000000
vn 0.923734 -0.016175 0.382611
vn 0.694153 0.190530 0.694154
vn 0.702445 0.114444 0.702445
vn 0.380139 0.114444 0.917783
vn 0.382611 -0.016175 0.923734
vn 0.000000 0.114444 0.993408
vn 0.375674 0.190530 0.906955
vn -0.380139 0.114444 0.917783
vn 0.000000 0.190530 0.981681
vn -0.694154 0.190530 0.694154
vn -0.702445 0.114444 0.702445
vn -0.906955 0.190530 0.375673
vn -0.917783 0.114444 0.380139
vn -0.923734 -0.016175 0.382611
vn -0.993408 0.114444 0.000000
vn -0.906955 0.190530 -0.375673
vn -0.917783 0.114444 -0.380139
vn -0.702445 0.114444 -0.702445
vn -0.375673 0.190530 -0.906956
vn -0.380139 0.114444 -0.917783
vn 0.000001 0.190530 -0.981681
vn 0.000000 0.114444 -0.993408
vn 0.375674 0.190530 -0.906955
vn 0.380139 0.114444 -0.917783
vn 0.706992 -0.016175 -0.706992
vn 0.906955 0.190530 0.375674
vn -0.375673 0.190530 0.906955
vn -0.981681 0.190530 0.000000
vn -0.694154 0.190530 -0.694154
s 1
f 49/1/1 18/2/2 17/3/3
f 19/4/4 18/5/2 49/6/1
f 20/7/5 19/4/4 51/8/6
f 53/9/7 21/10/8 20/7/5
f 54/11/9 22/12/10 21/10/8
f 23/13/11 22/14/10 54/15/9
f 56/16/12 24/17/13 23/13/11
f 56/16/12 57/18/14 25/19/15
f 26/20/16 25/21/15 57/22/14
f 59/23/17 27/24/18 26/20/16
f 60/25/19 28/26/20 27/24/18
f 29/27/21 28/26/20 60/25/19
f 62/28/22 30/29/23 29/30/21
f 62/28/22 63/31/24 31/32/25
f 63/31/24 64/33/26 32/34/27
f 17/3/3 32/34/27 64/33/26
f 33/35/28 65/36/29 66/37/30
f 65/36/29 49/1/1 50/38/31
f 67/39/32 65/40/29 33/41/28
f 51/8/6 49/6/1 65/40/29
f 68/42/33 67/39/32 35/43/34
f 52/44/35 51/8/6 67/39/32
f 37/45/36 69/46/37 68/42/33
f 69/46/37 53/9/7 52/44/35
f 70/47/38 69/48/37 37/49/36
f 54/15/9 53/50/7 69/48/37
f 39/51/39 71/52/40 70/47/38
f 55/53/41 54/15/9 70/47/38
f 40/54/42 72/55/43 71/52/40
f 56/16/12 55/53/41 71/52/40
f 41/56/44 73/57/45 72/55/43
f 73/57/45 57/18/14 56/16/12
f 74/58/46 73/59/45 41/60/44
f 58/61/47 57/22/14 73/59/45
f 43/62/48 75/63/49 74/58/46
f 59/23/17 58/61/47 74/58/46
f 44/64/50 76/65/51 75/63/49
f 76/65/51 60/25/19 59/23/17
f 45/66/52 77/67/53 76/65/51
f 61/68/54 60/25/19 76/65/51
f 46/69/55 78/70/56 77/71/53
f 78/70/56 62/28/22 61/72/54
f 47/73/57 79/74/58 78/70/56
f 79/74/58 63/31/24 62/28/22
f 48/75/59 80/76/60 79/74/58
f 79/74/58 80/76/60 64/33/26
f 66/37/30 80/76/60 48/75/59
f 66/37/30 50/38/31 64/33/26
f 82/77/61 81/78/62 33/35/28
f 82/77/61 1/79/63 2/80/64
f 83/81/65 81/82/62 2/83/64
f 83/81/65 35/43/34 33/41/28
f 84/84/66 83/81/65 3/85/67
f 36/86/68 35/43/34 83/81/65
f 5/87/69 85/88/70 84/84/66
f 85/88/70 37/45/36 36/86/68
f 86/89/71 85/88/70 5/87/69
f 38/60/72 37/45/36 85/88/70
f 87/90/73 86/91/71 6/92/74
f 39/51/39 38/93/72 86/91/71
f 88/94/75 87/90/73 7/95/76
f 40/54/42 39/51/39 87/90/73
f 9/96/77 89/97/78 88/94/75
f 89/97/78 41/56/44 40/54/42
f 10/98/79 90/99/80 89/97/78
f 42/100/81 41/60/44 89/101/78
f 91/102/82 90/103/80 10/104/79
f 43/62/48 42/100/81 90/103/80
f 12/105/83 92/106/84 91/102/82
f 44/64/50 43/62/48 91/102/82
f 93/107/85 92/106/84 12/105/83
f 45/66/52 44/64/50 92/106/84
f 14/108/86 94/109/87 93/110/85
f 94/109/87 46/69/55 45/111/52
f 15/112/88 95/113/89 94/109/87
f 95/113/89 47/73/57 46/69/55
f 15/112/88 16/114/90 96/115/91
f 96/115/91 48/75/59 47/73/57
f 82/77/61 96/115/91 16/114/90
f 34/116/92 48/75/59 96/115/91
f 50/38/31 49/1/1 17/3/3
f 51/8/6 19/4/4 49/6/1
f 52/44/35 20/7/5 51/8/6
f 52/44/35 53/9/7 20/7/5
f 53/9/7 54/11/9 21/10/8
f 55/53/41 23/13/11 54/15/9
f 55/53/41 56/16/12 23/13/11
f 24/17/13 56/16/12 25/19/15
f 58/61/47 26/20/16 57/22/14
f 58/61/47 59/23/17 26/20/16
f 59/23/17 60/25/19 27/24/18
f 61/68/54 29/27/21 60/25/19
f 61/72/54 62/28/22 29/30/21
f 30/29/23 62/28/22 31/32/25
f 31/32/25 63/31/24 32/34/27
f 50/38/31 17/3/3 64/33/26
f 34/116/92 33/35/28 66/37/30
f 66/37/30 65/36/29 50/38/31
f 35/43/34 67/39/32 33/41/28
f 67/39/32 51/8/6 65/40/29
f 36/86/68 68/42/33 35/43/34
f 68/42/33 52/44/35 67/39/32
f 36/86/68 37/45/36 68/42/33
f 68/42/33 69/46/37 52/44/35
f 38/93/72 70/47/38 37/49/36
f 70/47/38 54/15/9 69/48/37
f 38/93/72 39/51/39 70/47/38
f 71/52/40 55/53/41 70/47/38
f 39/51/39 40/54/42 71/52/40
f 72/55/43 56/16/12 71/52/40
f 40/54/42 41/56/44 72/55/43
f 72/55/43 73/57/45 56/16/12
f 42/100/81 74/58/46 41/60/44
f 74/58/46 58/61/47 73/59/45
f 42/100/81 43/62/48 74/58/46
f 75/63/49 59/23/17 74/58/46
f 43/62/48 44/64/50 75/63/49
f 75/63/49 76/65/51 59/23/17
f 44/64/50 45/66/52 76/65/51
f 77/67/53 61/68/54 76/65/51
f 45/111/52 46/69/55 77/71/53
f 77/71/53 78/70/56 61/72/54
f 46/69/55 47/73/57 78/70/56
f 78/70/56 79/74/58 62/28/22
f 47/73/57 48/75/59 79/74/58
f 63/31/24 79/74/58 64/33/26
f 34/116/92 66/37/30 48/75/59
f 80/76/60 66/37/30 64/33/26
f 34/116/92 82/77/61 33/35/28
f 81/78/62 82/77/61 2/80/64
f 3/85/67 83/81/65 2/83/64
f 81/82/62 83/81/65 33/41/28
f 4/117/93 84/84/66 3/85/67
f 84/84/66 36/86/68 83/81/65
f 4/117/93 5/87/69 84/84/66
f 84/84/66 85/88/70 36/86/68
f 6/118/74 86/89/71 5/87/69
f 86/89/71 38/60/72 85/88/70
f 7/95/76 87/90/73 6/92/74
f 87/90/73 39/51/39 86/91/71
f 8/119/94 88/94/75 7/95/76
f 88/94/75 40/54/42 87/90/73
f 8/119/94 9/96/77 88/94/75
f 88/94/75 89/97/78 40/54/42
f 9/96/77 10/98/79 89/97/78
f 90/103/80 42/100/81 89/101/78
f 11/120/95 91/102/82 10/104/79
f 91/102/82 43/62/48 90/103/80
f 11/120/95 12/105/83 91/102/82
f 92/106/84 44/64/50 91/102/82
f 13/121/96 93/107/85 12/105/83
f 93/107/85 45/66/52 92/106/84
f 13/122/96 14/108/86 93/110/85
f 93/110/85 94/109/87 45/111/52
f 14/108/86 15/112/88 94/109/87
f 94/109/87 95/113/89 46/69/55
f 95/113/89 15/112/88 96/115/91
f 95/113/89 96/115/91 47/73/57
f 1/79/63 82/77/61 16/114/90
f 82/77/61 34/116/92 96/115/91
