# Blender v2.70 (sub 0) OBJ File: 'mannequin.blend'
# www.blender.org
o Circle.005
v 0.224873 -0.113790 -0.224873
v 0.293810 -0.113790 -0.121700
v 0.318018 -0.113790 0.000000
v 0.293810 -0.113790 0.121700
v 0.224873 -0.113790 0.224873
v 0.121700 -0.113790 0.293810
v 0.000000 -0.113790 0.318018
v -0.121700 -0.113790 0.293810
v -0.224872 -0.113790 0.224873
v -0.293810 -0.113790 0.121700
v -0.318018 -0.113790 0.000000
v -0.293810 -0.113790 -0.121700
v -0.224872 -0.113790 -0.224873
v -0.121700 -0.113790 -0.293810
v 0.000000 -0.113790 -0.318018
v 0.121700 -0.113790 -0.293810
v 0.192710 -3.408970 -0.192710
v 0.251788 -3.408970 -0.104294
v 0.272534 -3.408970 0.000000
v 0.251788 -3.408970 0.104294
v 0.192710 -3.408970 0.192710
v 0.104294 -3.408970 0.251788
v 0.000000 -3.408970 0.272533
v -0.104294 -3.408970 0.251788
v -0.192710 -3.408970 0.192710
v -0.251788 -3.408970 0.104294
v -0.272533 -3.408970 0.000000
v -0.251788 -3.408970 -0.104294
v -0.192710 -3.408970 -0.192710
v -0.104294 -3.408970 -0.251788
v 0.000000 -3.408970 -0.272533
v 0.104294 -3.408970 -0.251788
v 0.468699 -0.939265 -0.194142
v 0.358727 -0.939265 -0.358727
v 0.507316 -0.939265 0.000000
v 0.468699 -0.939265 0.194142
v 0.358727 -0.939265 0.358727
v 0.194142 -0.939265 0.468699
v 0.000000 -0.939265 0.507316
v -0.194142 -0.939265 0.468699
v -0.358727 -0.939265 0.358727
v -0.468699 -0.939265 0.194142
v -0.507316 -0.939265 0.000000
v -0.468699 -0.939265 -0.194142
v -0.358727 -0.939265 -0.358727
v -0.194141 -0.939265 -0.468699
v 0.000000 -0.939265 -0.507316
v 0.194142 -0.939265 -0.468699
v 0.344245 -2.929067 -0.142591
v 0.263474 -2.929067 -0.263474
v 0.372608 -2.929067 0.000000
v 0.344245 -2.929067 0.142591
v 0.263474 -2.929067 0.263474
v 0.142591 -2.929067 0.344245
v 0.000000 -2.929067 0.372608
v -0.142591 -2.929067 0.344245
v -0.263474 -2.929067 0.263474
v -0.344245 -2.929067 0.142591
v -0.372608 -2.929067 0.000000
v -0.344245 -2.929067 -0.142591
v -0.263474 -2.929067 -0.263474
v -0.142591 -2.929067 -0.344245
v 0.000000 -2.929067 -0.372608
v 0.142591 -2.929067 -0.344245
v 0.435164 -1.501322 -0.180251
v 0.333060 -1.501322 -0.333060
v 0.471018 -1.501322 0.000000
v 0.435164 -1.501322 0.180251
v 0.333060 -1.501322 0.333060
v 0.180251 -1.501322 0.435163
v 0.000000 -1.501322 0.471018
v -0.180251 -1.501322 0.435164
v -0.333060 -1.501322 0.333060
v -0.435163 -1.501322 0.180251
v -0.471018 -1.501322 0.000000
v -0.435163 -1.501322 -0.180251
v -0.333060 -1.501322 -0.333060
v -0.180250 -1.501322 -0.435164
v 0.000000 -1.501322 -0.471018
v 0.180251 -1.501322 -0.435163
v 0.471738 -0.585094 -0.195400
v 0.361052 -0.585094 -0.361052
v 0.510605 -0.585094 0.000000
v 0.471738 -0.585094 0.195400
v 0.361052 -0.585094 0.361052
v 0.195400 -0.585094 0.471738
v 0.000000 -0.585094 0.510605
v -0.195400 -0.585094 0.471738
v -0.361052 -0.585094 0.361053
v -0.471738 -0.585094 0.195400
v -0.510605 -0.585094 -0.000000
v -0.471738 -0.585094 -0.195400
v -0.361052 -0.585094 -0.361053
v -0.195400 -0.585094 -0.471738
v 0.000000 -0.585094 -0.510605
v 0.195401 -0.585094 -0.471738
v 0.422221 -0.200981 -0.174890
v 0.323154 -0.200981 -0.323154
v 0.457009 -0.200981 0.000000
v 0.422221 -0.200981 0.174890
v 0.323154 -0.200981 0.323154
v 0.174890 -0.200981 0.422221
v 0.000000 -0.200981 0.457009
v -0.174890 -0.200981 0.422221
v -0.323154 -0.200981 0.323154
v -0.422221 -0.200981 0.174890
v -0.457009 -0.200981 -0.000000
v -0.422221 -0.200981 -0.174890
v -0.323154 -0.200981 -0.323154
v -0.174889 -0.200981 -0.422221
v 0.000000 -0.200981 -0.457009
v 0.174890 -0.200981 -0.422221
vt 0.274344 0.119755
vt 0.294800 0.001859
vt 0.318912 0.003674
vt 0.276373 0.000000
vt 0.096754 0.790868
vt 0.072583 0.791489
vt 0.057983 0.672726
vt 0.126806 0.671600
vt 0.122922 0.790666
vt 0.159863 0.671938
vt 0.147100 0.790913
vt 0.165609 0.791572
vt 0.457756 0.671877
vt 0.463480 0.790868
vt 0.439308 0.791489
vt 0.493532 0.671600
vt 0.489647 0.790666
vt 0.513826 0.790913
vt 0.532335 0.791573
vt 0.526589 0.671938
vt 0.209379 0.871297
vt 0.208945 0.847121
vt 0.327818 0.833439
vt 0.209379 0.897465
vt 0.328411 0.866493
vt 0.327818 0.935323
vt 0.208945 0.921641
vt 0.376061 0.125580
vt 0.369198 0.006119
vt 0.387717 0.006377
vt 0.343027 0.124283
vt 0.345037 0.005171
vt 0.240793 0.470297
vt 0.282464 0.473435
vt 0.272802 0.611672
vt 0.307309 0.122237
vt 0.041810 0.320953
vt 0.009842 0.322586
vt 0.001346 0.184250
vt 0.249150 0.117214
vt 0.080773 0.181334
vt 0.083586 0.319880
vt 0.091030 0.671877
vt 0.129482 0.180958
vt 0.128810 0.319530
vt 0.170598 0.319958
vt 0.202587 0.321097
vt 0.174490 0.181418
vt 0.185169 0.672840
vt 0.450312 0.319880
vt 0.408535 0.320953
vt 0.402503 0.182490
vt 0.424708 0.672726
vt 0.496208 0.180958
vt 0.495536 0.319530
vt 0.537324 0.319958
vt 0.569313 0.321097
vt 0.541216 0.181418
vt 0.551894 0.672840
vt 0.680455 0.861768
vt 0.679705 0.819985
vt 0.818210 0.815022
vt 0.680455 0.906994
vt 0.819018 0.860025
vt 0.328411 0.902269
vt 0.819018 0.908736
vt 0.818210 0.953739
vt 0.679705 0.948777
vt 0.366409 0.616223
vt 0.369374 0.477661
vt 0.401380 0.478105
vt 0.321434 0.614457
vt 0.327616 0.476021
vt 0.267664 0.698628
vt 0.222490 0.695226
vt 0.227919 0.608292
vt 0.035777 0.182490
vt 0.000000 0.097164
vt 0.034655 0.095394
vt 0.079942 0.094230
vt 0.128967 0.093852
vt 0.208945 0.182645
vt 0.174267 0.094315
vt 0.446667 0.094230
vt 0.447498 0.181334
vt 0.495693 0.093851
vt 0.575670 0.182645
vt 0.540993 0.094315
vt 0.905312 0.814572
vt 0.906126 0.859867
vt 0.905312 0.954189
vt 0.903810 0.988856
vt 0.816717 0.988183
vt 0.316611 0.701431
vt 0.264866 0.792496
vt 0.224433 0.789451
vt 0.594853 0.125569
vt 0.605112 0.153780
vt 0.590414 0.172782
vt 0.617656 0.203810
vt 0.010239 0.002965
vt 0.653251 0.220603
vt 0.624070 0.175371
vt 0.041256 0.001380
vt 0.675648 0.187057
vt 0.691777 0.220603
vt 0.125669 0.000000
vt 0.727371 0.203811
vt 0.754614 0.172782
vt 0.700417 0.175371
vt 0.208945 0.095550
vt 0.166214 0.000415
vt 0.769358 0.132242
vt 0.719374 0.153780
vt 0.401380 0.095394
vt 0.407981 0.001380
vt 0.729634 0.095034
vt 0.769358 0.088361
vt 0.492394 0.000000
vt 0.719374 0.066823
vt 0.754614 0.047821
vt 0.727372 0.016792
vt 0.575670 0.095550
vt 0.532939 0.000415
vt 0.675648 0.033546
vt 0.691777 0.000000
vt 0.999272 0.821900
vt 0.653251 0.000000
vt 0.906126 0.908894
vt 1.000000 0.862440
vt 0.624070 0.045231
vt 0.617656 0.016792
vt 0.999272 0.946862
vt 0.605112 0.066823
vt 0.590414 0.047821
vt 0.997927 0.977890
vt 0.594853 0.095034
vt 0.575670 0.088361
vt 0.308675 0.795005
vt 0.361878 0.703209
vt 0.270385 0.812827
vt 0.401380 0.125932
vt 0.208945 0.467085
vt 0.400882 0.616702
vt 0.575670 0.132242
vt 0.648839 0.187057
vt 0.081789 0.000339
vt 0.197251 0.001520
vt 0.729634 0.125569
vt 0.448515 0.000339
vt 0.700417 0.045231
vt 0.563977 0.001520
vt 0.648839 0.033546
vt 1.000000 0.906321
vt 0.349190 0.796596
vt 0.300870 0.814572
vn 0.915342 -0.135624 -0.379131
vn 0.904424 -0.204140 -0.374626
vn 0.692216 -0.204140 -0.692216
vn 0.978942 -0.204140 0.000000
vn 0.904424 -0.204140 0.374626
vn 0.990753 -0.135624 0.000000
vn 0.700552 -0.135624 0.700552
vn 0.692216 -0.204140 0.692216
vn 0.379131 -0.135624 0.915342
vn 0.374625 -0.204140 0.904424
vn 0.000000 -0.204140 0.978942
vn -0.379131 -0.135624 0.915342
vn -0.374625 -0.204140 0.904424
vn -0.700552 -0.135624 0.700552
vn -0.692216 -0.204140 0.692217
vn -0.904424 -0.204140 0.374625
vn -0.978942 -0.204140 0.000001
vn -0.915342 -0.135624 0.379131
vn -0.904424 -0.204140 -0.374625
vn -0.990753 -0.135624 0.000000
vn -0.692216 -0.204140 -0.692216
vn -0.915342 -0.135624 -0.379131
vn -0.379131 -0.135624 -0.915342
vn -0.374624 -0.204140 -0.904424
vn 0.000000 -0.135624 -0.990753
vn 0.000000 -0.204140 -0.978942
vn 0.379131 -0.135624 -0.915311
vn 0.374625 -0.204140 -0.904424
vn 0.921812 -0.066561 -0.381817
vn 0.705527 -0.066561 -0.705527
vn 0.706626 -0.036744 -0.706626
vn 0.700552 -0.135624 -0.700552
vn 0.997772 -0.066561 0.000000
vn 0.923246 -0.036744 -0.382397
vn 0.923246 -0.036744 0.382397
vn 0.921812 -0.066561 0.381817
vn 0.915342 -0.135624 0.379131
vn 0.706626 -0.036744 0.706626
vn 0.705527 -0.066561 0.705527
vn 0.381817 -0.066561 0.921812
vn 0.000000 -0.066561 0.997772
vn 0.382397 -0.036744 0.923246
vn 0.000000 -0.135624 0.990753
vn -0.381817 -0.066561 0.921812
vn 0.000000 -0.036744 0.999298
vn -0.706626 -0.036744 0.706626
vn -0.705527 -0.066561 0.705527
vn -0.921812 -0.066561 0.381817
vn -0.997772 -0.066561 0.000000
vn -0.923246 -0.036744 0.382397
vn -0.921812 -0.066561 -0.381817
vn -0.999298 -0.036744 0.000000
vn -0.705527 -0.066561 -0.705527
vn -0.923246 -0.036744 -0.382397
vn -0.700552 -0.135624 -0.700552
vn -0.706626 -0.036744 -0.706626
vn -0.382397 -0.036744 -0.923246
vn -0.381817 -0.066561 -0.921812
vn 0.000000 -0.036744 -0.999298
vn 0.000000 -0.066561 -0.997772
vn 0.382397 -0.036744 -0.923246
vn 0.381817 -0.066561 -0.921812
vn 0.705649 0.064028 -0.705649
vn 0.921964 0.064028 -0.381878
vn 0.999298 -0.036744 0.000000
vn 0.997925 0.064028 0.000000
vn 0.921964 0.064028 0.381878
vn 0.705649 0.064028 0.705649
vn 0.381878 0.064028 0.921964
vn -0.381878 0.064028 0.921964
vn -0.382397 -0.036744 0.923246
vn -0.705649 0.064028 0.705649
vn -0.921964 0.064028 0.381878
vn -0.997925 0.064028 0.000000
vn -0.921964 0.064028 -0.381878
vn -0.381878 0.064028 -0.921964
vn 0.000000 0.064028 -0.997925
vn 0.381878 0.064028 -0.921964
vn 0.603626 0.520768 -0.603626
vn 0.788690 0.520768 -0.326670
vn 0.375763 0.847115 -0.375763
vn 0.490958 0.847115 -0.203362
vn 0.853664 0.520768 0.000000
vn 0.788690 0.520768 0.326670
vn 0.531409 0.847115 -0.000000
vn 0.375763 0.847115 0.375763
vn 0.603626 0.520768 0.603626
vn 0.326670 0.520768 0.788690
vn 0.000000 0.520768 0.853664
vn 0.203362 0.847115 0.490958
vn 0.000000 0.064028 0.997925
vn -0.326670 0.520768 0.788690
vn 0.000000 0.847115 0.531409
vn -0.375763 0.847115 0.375763
vn -0.603626 0.520768 0.603626
vn -0.490958 0.847115 0.203362
vn -0.788690 0.520768 0.326670
vn -0.853664 0.520768 0.000000
vn -0.490958 0.847115 -0.203362
vn -0.788690 0.520768 -0.326670
vn -0.603626 0.520768 -0.603626
vn -0.705649 0.064028 -0.705649
vn -0.203361 0.847115 -0.490958
vn -0.326670 0.520768 -0.788690
vn 0.000000 0.847115 -0.531409
vn 0.000000 0.520768 -0.853664
vn 0.203362 0.847115 -0.490958
vn 0.326670 0.520768 -0.788690
vn 0.490958 0.847115 0.203362
vn -0.203361 0.847115 0.490958
vn -0.531409 0.847115 0.000000
vn -0.375763 0.847115 -0.375763
s 1
f 49/1/1 18/2/2 17/3/3
f 19/4/4 18/2/2 49/1/1
f 20/5/5 19/6/4 51/7/6
f 53/8/7 21/9/8 20/5/5
f 54/10/9 22/11/10 21/9/8
f 23/12/11 22/11/10 54/10/9
f 56/13/12 24/14/13 23/15/11
f 56/13/12 57/16/14 25/17/15
f 26/18/16 25/17/15 57/16/14
f 27/19/17 26/18/16 58/20/18
f 28/21/19 27/22/17 59/23/20
f 29/24/21 28/21/19 60/25/22
f 62/26/23 30/27/24 29/24/21
f 63/28/25 31/29/26 30/30/24
f 64/31/27 32/32/28 31/29/26
f 17/3/3 32/32/28 64/31/27
f 65/33/29 66/34/30 34/35/31
f 49/1/1 50/36/32 66/34/30
f 67/37/33 65/38/29 33/39/34
f 51/40/6 49/1/1 65/33/29
f 36/41/35 68/42/36 67/37/33
f 52/43/37 51/7/6 67/37/33
f 37/44/38 69/45/39 68/42/36
f 69/45/39 53/8/7 52/43/37
f 70/46/40 69/45/39 37/44/38
f 54/10/9 53/8/7 69/45/39
f 71/47/41 70/46/40 38/48/42
f 55/49/43 54/10/9 70/46/40
f 72/50/44 71/51/41 39/52/45
f 72/50/44 56/13/12 55/53/43
f 41/54/46 73/55/47 72/50/44
f 73/55/47 57/16/14 56/13/12
f 74/56/48 73/55/47 41/54/46
f 74/56/48 58/20/18 57/16/14
f 75/57/49 74/56/48 42/58/50
f 59/59/20 58/20/18 74/56/48
f 76/60/51 75/61/49 43/62/52
f 76/60/51 60/25/22 59/23/20
f 77/63/53 76/60/51 44/64/54
f 61/65/55 60/25/22 76/60/51
f 45/66/56 46/67/57 78/68/58
f 78/68/58 62/26/23 61/65/55
f 47/69/59 79/70/60 78/71/58
f 78/71/58 79/70/60 63/28/25
f 47/69/59 48/72/61 80/73/62
f 79/70/60 80/73/62 64/31/27
f 34/35/31 66/34/30 80/73/62
f 50/36/32 64/31/27 80/73/62
f 82/74/63 81/75/64 33/76/34
f 35/77/65 33/39/34 81/78/64
f 36/41/35 35/77/65 83/79/66
f 84/80/67 85/81/68 37/44/38
f 38/48/42 37/44/38 85/81/68
f 39/82/45 38/48/42 86/83/69
f 88/84/70 40/85/71 39/52/45
f 89/86/72 41/54/46 40/85/71
f 42/58/50 41/54/46 89/86/72
f 43/87/52 42/58/50 90/88/73
f 44/64/54 43/62/52 91/89/74
f 45/66/56 44/64/54 92/90/75
f 94/91/76 46/67/57 45/66/56
f 94/91/76 95/92/77 47/93/59
f 96/94/78 48/72/61 47/69/59
f 34/35/31 48/72/61 96/94/78
f 82/74/63 98/95/79 97/96/80
f 1/97/81 2/98/82 97/99/80
f 99/100/83 97/99/80 2/98/82
f 83/79/66 81/78/64 97/101/80
f 100/102/84 99/100/83 3/103/85
f 84/80/67 83/79/66 99/104/83
f 5/105/86 101/106/87 100/102/84
f 101/107/87 85/81/68 84/80/67
f 102/108/88 101/106/87 5/105/86
f 86/83/69 85/81/68 101/107/87
f 103/109/89 102/108/88 6/110/90
f 87/111/91 86/83/69 102/112/88
f 104/113/92 103/109/89 7/114/93
f 88/84/70 87/115/91 103/116/89
f 9/117/94 105/118/95 104/113/92
f 105/119/95 89/86/72 88/84/70
f 10/120/96 106/121/97 105/118/95
f 90/88/73 89/86/72 105/119/95
f 107/122/98 106/121/97 10/120/96
f 91/123/74 90/88/73 106/124/97
f 12/125/99 108/126/100 107/122/98
f 92/90/75 91/89/74 107/127/98
f 109/128/101 108/126/100 12/125/99
f 93/129/102 92/90/75 108/130/100
f 14/131/103 110/132/104 109/128/101
f 110/133/104 94/91/76 93/129/102
f 15/134/105 111/135/106 110/132/104
f 110/133/104 111/136/106 95/92/77
f 16/137/107 112/138/108 111/135/106
f 112/139/108 96/94/78 95/140/77
f 1/141/81 98/95/79 112/139/108
f 82/74/63 96/94/78 112/139/108
f 50/36/32 49/1/1 17/3/3
f 51/40/6 19/4/4 49/1/1
f 52/43/37 20/5/5 51/7/6
f 52/43/37 53/8/7 20/5/5
f 53/8/7 54/10/9 21/9/8
f 55/49/43 23/12/11 54/10/9
f 55/53/43 56/13/12 23/15/11
f 24/14/13 56/13/12 25/17/15
f 58/20/18 26/18/16 57/16/14
f 59/59/20 27/19/17 58/20/18
f 60/25/22 28/21/19 59/23/20
f 61/65/55 29/24/21 60/25/22
f 61/65/55 62/26/23 29/24/21
f 62/142/23 63/28/25 30/30/24
f 63/28/25 64/31/27 31/29/26
f 50/36/32 17/3/3 64/31/27
f 33/76/34 65/33/29 34/35/31
f 65/33/29 49/1/1 66/34/30
f 35/77/65 67/37/33 33/39/34
f 67/143/33 51/40/6 65/33/29
f 35/77/65 36/41/35 67/37/33
f 68/42/36 52/43/37 67/37/33
f 36/41/35 37/44/38 68/42/36
f 68/42/36 69/45/39 52/43/37
f 38/48/42 70/46/40 37/44/38
f 70/46/40 54/10/9 69/45/39
f 39/82/45 71/47/41 38/48/42
f 71/47/41 55/49/43 70/46/40
f 40/85/71 72/50/44 39/52/45
f 71/51/41 72/50/44 55/53/43
f 40/85/71 41/54/46 72/50/44
f 72/50/44 73/55/47 56/13/12
f 42/58/50 74/56/48 41/54/46
f 73/55/47 74/56/48 57/16/14
f 43/87/52 75/57/49 42/58/50
f 75/57/49 59/59/20 74/56/48
f 44/64/54 76/60/51 43/62/52
f 75/61/49 76/60/51 59/23/20
f 45/66/56 77/63/53 44/64/54
f 77/63/53 61/65/55 76/60/51
f 77/63/53 45/66/56 78/68/58
f 77/63/53 78/68/58 61/65/55
f 46/144/57 47/69/59 78/71/58
f 62/142/23 78/71/58 63/28/25
f 79/70/60 47/69/59 80/73/62
f 63/28/25 79/70/60 64/31/27
f 48/72/61 34/35/31 80/73/62
f 66/34/30 50/36/32 80/73/62
f 34/35/31 82/74/63 33/76/34
f 83/79/66 35/77/65 81/78/64
f 84/80/67 36/41/35 83/79/66
f 36/41/35 84/80/67 37/44/38
f 86/83/69 38/48/42 85/81/68
f 87/111/91 39/82/45 86/83/69
f 87/115/91 88/84/70 39/52/45
f 88/84/70 89/86/72 40/85/71
f 90/88/73 42/58/50 89/86/72
f 91/123/74 43/87/52 90/88/73
f 92/90/75 44/64/54 91/89/74
f 93/129/102 45/66/56 92/90/75
f 93/129/102 94/91/76 45/66/56
f 46/67/57 94/91/76 47/93/59
f 95/140/77 96/94/78 47/69/59
f 82/74/63 34/35/31 96/94/78
f 81/75/64 82/74/63 97/96/80
f 98/145/79 1/97/81 97/99/80
f 3/103/85 99/100/83 2/98/82
f 99/104/83 83/79/66 97/101/80
f 4/146/109 100/102/84 3/103/85
f 100/147/84 84/80/67 99/104/83
f 4/146/109 5/105/86 100/102/84
f 100/147/84 101/107/87 84/80/67
f 6/110/90 102/108/88 5/105/86
f 102/112/88 86/83/69 101/107/87
f 7/114/93 103/109/89 6/110/90
f 103/148/89 87/111/91 102/112/88
f 8/149/110 104/113/92 7/114/93
f 104/150/92 88/84/70 103/116/89
f 8/149/110 9/117/94 104/113/92
f 104/150/92 105/119/95 88/84/70
f 9/117/94 10/120/96 105/118/95
f 106/124/97 90/88/73 105/119/95
f 11/151/111 107/122/98 10/120/96
f 107/152/98 91/123/74 106/124/97
f 11/151/111 12/125/99 107/122/98
f 108/130/100 92/90/75 107/127/98
f 13/153/112 109/128/101 12/125/99
f 109/154/101 93/129/102 108/130/100
f 13/153/112 14/131/103 109/128/101
f 109/154/101 110/133/104 93/129/102
f 14/131/103 15/134/105 110/132/104
f 94/91/76 110/133/104 95/92/77
f 15/134/105 16/137/107 111/135/106
f 111/155/106 112/139/108 95/140/77
f 16/156/107 1/141/81 112/139/108
f 98/95/79 82/74/63 112/139/108
