# Blender v2.70 (sub 0) OBJ File: 'mannequin.blend'
# www.blender.org
o Circle.008
v 0.743271 1.538453 -0.476220
v 0.971131 1.538453 -0.257729
v 1.051144 1.538453 0.000000
v 0.971131 1.538453 0.257729
v 0.743271 1.538453 0.476220
v 0.402256 1.538453 0.622212
v 0.000000 1.538453 0.673477
v -0.402255 1.538453 0.622212
v -0.743271 1.538453 0.476220
v -0.971131 1.538453 0.257729
v -1.051145 1.538453 -0.000000
v -0.971131 1.538453 -0.257729
v -0.743271 1.538453 -0.476220
v -0.402255 1.538453 -0.622212
v 0.000001 1.538453 -0.673477
v 0.402256 1.538453 -0.622212
v 0.182078 1.960183 -0.182078
v 0.237896 1.960183 -0.098540
v 0.257497 1.960183 0.000000
v 0.237896 1.960183 0.098540
v 0.182078 1.960183 0.182078
v 0.098540 1.960183 0.237896
v 0.000000 1.960183 0.257497
v -0.098540 1.960183 0.237896
v -0.182078 1.960183 0.182078
v -0.237896 1.960183 0.098540
v -0.257497 1.960183 0.000000
v -0.237896 1.960183 -0.098540
v -0.182078 1.960183 -0.182078
v -0.098540 1.960183 -0.237896
v 0.000000 1.960183 -0.257497
v 0.098540 1.960183 -0.237896
v 0.632008 1.749318 -0.417070
v 0.825759 1.749318 -0.225717
v 0.893795 1.749318 0.000000
v 0.825759 1.749318 0.225717
v 0.632008 1.749318 0.417070
v 0.342041 1.749318 0.544928
v 0.000000 1.749318 0.589826
v -0.342040 1.749318 0.544928
v -0.632008 1.749318 0.417070
v -0.825759 1.749318 0.225717
v -0.893795 1.749318 -0.000000
v -0.825759 1.749318 -0.225717
v -0.632008 1.749318 -0.417070
v -0.342040 1.749318 -0.544928
v 0.000001 1.749318 -0.589826
v 0.342041 1.749318 -0.544928
v 0.692474 0.756388 -0.410943
v 0.904761 0.756388 -0.196593
v 0.979307 0.756388 0.056251
v 0.904761 0.756388 0.309095
v 0.692474 0.756388 0.523446
v 0.374765 0.756388 0.666670
v 0.000000 0.756388 0.716964
v -0.374764 0.756388 0.666670
v -0.692474 0.756388 0.523446
v -0.904762 0.756388 0.309095
v -0.979307 0.756388 0.056251
v -0.904761 0.756388 -0.196593
v -0.692474 0.756388 -0.410943
v -0.374764 0.756388 -0.554168
v 0.000001 0.756388 -0.604461
v 0.374765 0.756388 -0.554168
v 0.591965 0.045138 -0.321750
v 0.773440 0.006047 -0.152884
v 0.837165 -0.015276 0.046306
v 0.773440 0.006047 0.245497
v 0.591965 0.045138 0.414363
v 0.320369 0.073569 0.527195
v 0.000000 0.073569 0.566816
v -0.320369 0.073569 0.527195
v -0.591965 0.045138 0.414363
v -0.773440 0.006047 0.245497
v -0.837165 -0.015276 0.046306
v -0.773440 0.006047 -0.152884
v -0.591965 0.045138 -0.321750
v -0.320369 0.073569 -0.434583
v 0.000001 0.073569 -0.474204
v 0.320370 0.073569 -0.434582
v 0.367958 0.042617 -0.182473
v 0.480760 0.018318 -0.077508
v 0.520371 0.005064 0.046306
v 0.480760 0.018318 0.170121
v 0.367958 0.042617 0.275085
v 0.199137 0.060289 0.345220
v 0.000000 0.060289 0.369848
v -0.199137 0.060289 0.345220
v -0.367958 0.042617 0.275085
v -0.480760 0.018318 0.170121
v -0.520371 0.005064 0.046306
v -0.480760 0.018318 -0.077508
v -0.367958 0.042617 -0.182473
v -0.199137 0.060289 -0.252608
v 0.000000 0.060289 -0.277236
v 0.199138 0.060289 -0.252608
vt 0.636986 0.506877
vt 0.599463 0.458612
vt 0.615937 0.416443
vt 0.567030 0.608566
vt 0.549877 0.593740
vt 0.560546 0.390713
vt 0.550897 0.436520
vt 0.498682 0.443964
vt 0.528404 0.586288
vt 0.505879 0.587345
vt 0.758218 0.433695
vt 0.771905 0.390713
vt 0.831554 0.396018
vt 0.485732 0.596750
vt 0.345305 0.000000
vt 0.393644 0.026351
vt 0.390848 0.089459
vt 0.450766 0.479810
vt 0.471031 0.613072
vt 0.342090 0.074297
vt 0.389335 0.165813
vt 0.414445 0.538602
vt 0.464012 0.633825
vt 0.389335 0.243787
vt 0.340310 0.255795
vt 0.465745 0.655850
vt 0.396099 0.687088
vt 0.390848 0.311512
vt 0.342017 0.335363
vt 0.475966 0.675794
vt 0.416867 0.754177
vt 0.393645 0.358677
vt 0.345195 0.390713
vt 0.493119 0.690620
vt 0.454390 0.802442
vt 0.871510 0.437962
vt 0.831554 0.446063
vt 0.853387 0.401567
vt 0.502956 0.824534
vt 0.888624 0.394520
vt 0.940107 0.390713
vt 0.514592 0.698072
vt 0.537117 0.697015
vt 0.930573 0.433670
vt 1.000000 0.390724
vt 0.555172 0.817090
vt 0.557263 0.687610
vt 0.057520 0.778568
vt 0.009529 0.754972
vt 0.006240 0.689419
vt 0.603087 0.781243
vt 0.571965 0.671288
vt 0.053689 0.701473
vt 0.003274 0.612063
vt 0.639408 0.722452
vt 0.578984 0.650535
vt 0.047624 0.519495
vt 0.050214 0.610499
vt 0.657754 0.573965
vt 0.658604 0.649666
vt 0.046313 0.442317
vt 0.001083 0.534682
vt 0.577251 0.628510
vt 0.046481 0.390713
vt 0.224281 0.399816
vt 0.707706 0.609356
vt 0.667565 0.612057
vt 0.658604 0.434736
vt 0.765291 0.611035
vt 0.699049 0.431865
vt 0.831554 0.616838
vt 0.164781 0.079022
vt 0.167898 0.009932
vt 0.340336 0.164120
vt 0.163105 0.162660
vt 0.163123 0.248115
vt 0.164834 0.322376
vt 0.835820 0.623888
vt 0.875490 0.616034
vt 0.932962 0.611729
vt 0.999752 0.433840
vt 0.230841 0.689344
vt 0.234472 0.761168
vt 0.227581 0.604588
vt 0.224031 0.447897
vt 0.225190 0.519803
vt 0.395249 0.423856
vt 0.711937 0.786712
vt 0.681189 0.784202
vt 0.758177 0.783397
vt 0.008997 0.033962
vt 0.011534 0.164781
vt 0.006378 0.301056
vt 0.167977 0.374137
vt 0.000000 0.345012
vt 0.900499 0.791861
vt 0.869675 0.793396
vt 0.946203 0.783817
vt 0.999486 0.611629
vt 0.395249 0.733049
vt 0.383045 0.599406
vt 0.386324 0.465248
vt 0.533812 0.367293
vt 0.525012 0.299460
vt 0.551722 0.277039
vt 0.487302 0.376073
vt 0.496102 0.304918
vt 0.469392 0.292581
vt 0.448949 0.264329
vt 0.444331 0.356227
vt 0.437886 0.224462
vt 0.411443 0.310775
vt 0.393645 0.246637
vt 0.393645 0.173578
vt 0.437886 0.179049
vt 0.411443 0.102720
vt 0.448949 0.135005
vt 0.444331 0.044851
vt 0.469392 0.099034
vt 0.487301 0.008780
vt 0.496102 0.076613
vt 0.533812 0.000000
vt 0.525012 0.071156
vt 0.551722 0.083492
vt 0.576782 0.019847
vt 0.609670 0.065299
vt 0.572165 0.111744
vt 0.583228 0.151612
vt 0.627469 0.129437
vt 0.627469 0.202496
vt 0.583228 0.197024
vt 0.609670 0.273354
vt 0.572164 0.241069
vt 0.576782 0.331223
vt 0.658604 0.472992
vt 0.500862 0.399718
vt 0.827104 0.439948
vt 0.395249 0.611388
vt 0.000000 0.469055
vt 0.812576 0.779615
vt 0.012911 0.093222
vt 0.011493 0.237772
vt 1.000000 0.775329
vt 0.385802 0.671862
vt 0.380971 0.526929
vn 0.393353 0.705557 -0.589404
vn 0.551042 0.760674 -0.343028
vn 0.835200 0.223518 -0.502426
vn 0.260490 0.917852 -0.299488
vn 0.303609 0.942576 -0.139181
vn 0.967132 0.254097 -0.008087
vn 0.620716 0.784020 0.000000
vn 0.551042 0.760674 0.343028
vn 0.314570 0.949234 0.000000
vn 0.303609 0.942576 0.139182
vn 0.832820 0.261208 0.488021
vn 0.393353 0.705557 0.589404
vn 0.260490 0.917851 0.299490
vn 0.551103 0.243049 0.798212
vn 0.203436 0.649861 0.732292
vn 0.154080 0.875522 0.457952
vn 0.265114 0.221015 0.938505
vn 0.000000 0.626179 0.779656
vn 0.000000 0.853215 0.521560
vn -0.203436 0.649861 0.732292
vn -0.265114 0.221015 0.938505
vn -0.154080 0.875523 0.457950
vn -0.393353 0.705557 0.589404
vn -0.551103 0.243049 0.798212
vn -0.260490 0.917852 0.299488
vn -0.551042 0.760674 0.343028
vn -0.832789 0.261208 0.488021
vn -0.303609 0.942576 0.139181
vn -0.967132 0.254097 -0.008087
vn -0.620716 0.784020 0.000000
vn -0.551042 0.760674 -0.343028
vn -0.314570 0.949234 -0.000000
vn -0.303609 0.942576 -0.139182
vn -0.835200 0.223518 -0.502426
vn -0.393353 0.705557 -0.589404
vn -0.260489 0.917851 -0.299491
vn -0.555895 0.183721 -0.810663
vn -0.203436 0.649861 -0.732292
vn -0.154080 0.875523 -0.457950
vn -0.266976 0.153294 -0.951415
vn 0.000000 0.626179 -0.779656
vn 0.000000 0.853215 -0.521559
vn 0.266976 0.153294 -0.951415
vn 0.000000 0.141728 -0.989898
vn 0.203436 0.649861 -0.732292
vn 0.555895 0.183721 -0.810663
vn 0.154081 0.875523 -0.457950
vn 0.853236 -0.139836 -0.502396
vn 0.990936 -0.133976 0.006989
vn 0.850856 -0.111667 0.513352
vn 0.560808 -0.090762 0.822932
vn 0.267769 -0.082217 0.959960
vn 0.000000 0.212226 0.977203
vn 0.000000 -0.080630 0.996734
vn -0.267769 -0.082217 0.959960
vn -0.560808 -0.090762 0.822932
vn -0.850856 -0.111667 0.513352
vn -0.990936 -0.133976 0.006989
vn -0.853236 -0.139836 -0.502396
vn -0.268258 -0.138157 -0.953368
vn -0.563799 -0.137638 -0.814356
vn 0.000000 -0.138432 -0.990356
vn 0.563799 -0.137638 -0.814356
vn 0.268258 -0.138157 -0.953368
vn 0.537980 -0.722861 -0.433607
vn 0.660268 -0.750999 -0.001770
vn 0.534776 -0.727805 0.429243
vn 0.307657 -0.711478 0.631733
vn 0.000000 -0.733909 0.679220
vn -0.307657 -0.711478 0.631733
vn -0.534776 -0.727805 0.429243
vn -0.660268 -0.750999 -0.001770
vn -0.537980 -0.722861 -0.433607
vn -0.312113 -0.703085 -0.638905
vn 0.000000 -0.724204 -0.689535
vn 0.312113 -0.703085 -0.638905
vn -0.072441 -0.990117 -0.120090
vn -0.065542 -0.990197 -0.123342
vn -0.064074 -0.997945 0.000000
vn -0.072441 -0.990116 0.120090
vn -0.065542 -0.990197 0.123342
vn -0.018458 -0.996210 0.084997
vn 0.141057 -0.717917 0.681661
vn 0.000000 -0.997735 0.067269
vn -0.141057 -0.717917 0.681661
vn 0.018458 -0.996210 0.084997
vn 0.065542 -0.990197 0.123342
vn 0.072441 -0.990117 0.120090
vn 0.064074 -0.997945 0.000000
vn 0.072441 -0.990117 -0.120090
vn 0.065542 -0.990197 -0.123342
vn 0.018458 -0.996210 -0.084997
vn -0.143681 -0.708029 -0.691366
vn 0.000000 -0.997735 -0.067269
vn 0.143681 -0.708029 -0.691366
vn -0.018458 -0.996210 -0.084997
s 1
f 33/1/1 34/2/2 2/3/3
f 17/4/4 18/5/5 34/2/2
f 3/6/6 2/3/3 34/2/2
f 35/7/7 34/2/2 18/5/5
f 3/6/6 35/7/7 36/8/8
f 35/7/7 19/9/9 20/10/10
f 4/11/11 36/12/8 37/13/12
f 36/8/8 20/10/10 21/14/13
f 5/15/14 37/16/12 38/17/15
f 37/18/12 21/14/13 22/19/16
f 6/20/17 38/17/15 39/21/18
f 38/22/15 22/19/16 23/23/19
f 39/21/18 40/24/20 8/25/21
f 23/23/19 24/26/22 40/27/20
f 40/24/20 41/28/23 9/29/24
f 24/26/22 25/30/25 41/31/23
f 41/28/23 42/32/26 10/33/27
f 25/30/25 26/34/28 42/35/26
f 11/36/29 10/37/27 42/38/26
f 43/39/30 42/35/26 26/34/28
f 11/36/29 43/40/30 44/41/31
f 43/39/30 27/42/32 28/43/33
f 12/44/34 44/41/31 45/45/35
f 44/46/31 28/43/33 29/47/36
f 13/48/37 45/49/35 46/50/38
f 45/51/35 29/47/36 30/52/39
f 14/53/40 46/50/38 47/54/41
f 46/55/38 30/52/39 31/56/42
f 16/57/43 15/58/44 47/54/41
f 48/59/45 47/60/41 31/56/42
f 1/61/46 16/57/43 48/62/45
f 32/63/47 17/4/4 33/1/1
f 1/61/46 2/64/3 50/65/48
f 51/66/49 50/67/48 2/68/3
f 52/69/50 51/66/49 3/70/6
f 53/71/51 52/69/50 4/11/11
f 54/72/52 53/73/51 5/15/14
f 6/20/17 7/74/53 55/75/54
f 55/75/54 7/74/53 8/25/21
f 56/76/55 8/25/21 9/29/24
f 57/77/56 9/29/24 10/33/27
f 58/78/57 10/37/27 11/36/29
f 59/79/58 11/36/29 12/44/34
f 60/80/59 12/44/34 13/81/37
f 62/82/60 61/83/61 13/48/37
f 14/53/40 15/58/44 63/84/62
f 63/84/62 15/58/44 16/57/43
f 1/61/46 49/85/63 64/86/64
f 49/85/63 50/65/48 66/87/65
f 67/88/66 66/89/65 50/67/48
f 67/88/66 51/66/49 52/69/50
f 68/90/67 52/69/50 53/71/51
f 69/91/68 53/73/51 54/72/52
f 54/72/52 55/75/54 71/92/69
f 71/92/69 55/75/54 56/76/55
f 56/76/55 57/77/56 73/93/70
f 57/77/56 58/94/57 74/95/71
f 75/96/72 74/97/71 58/78/57
f 75/96/72 59/79/58 60/80/59
f 76/98/73 60/80/59 61/99/61
f 77/100/74 61/83/61 62/82/60
f 62/82/60 63/84/62 79/101/75
f 79/101/75 63/84/62 64/86/64
f 64/86/64 49/85/63 65/102/76
f 66/103/65 82/104/77 81/105/78
f 67/106/66 83/107/79 82/104/77
f 84/108/80 83/107/79 67/106/66
f 85/109/81 84/108/80 68/110/67
f 86/111/82 85/109/81 69/112/68
f 70/113/83 71/114/69 87/115/84
f 72/116/85 88/117/86 87/115/84
f 73/118/70 89/119/87 88/117/86
f 74/120/71 90/121/88 89/119/87
f 75/122/72 91/123/89 90/121/88
f 92/124/90 91/123/89 75/122/72
f 76/125/73 77/126/74 93/127/91
f 94/128/92 93/127/91 77/126/74
f 78/129/93 79/130/75 95/131/94
f 80/132/95 96/133/96 95/131/94
f 65/134/76 81/105/78 96/133/96
f 1/135/46 33/1/1 2/3/3
f 33/1/1 17/4/4 34/2/2
f 35/7/7 3/6/6 34/2/2
f 19/9/9 35/7/7 18/5/5
f 4/136/11 3/6/6 36/8/8
f 36/8/8 35/7/7 20/10/10
f 5/137/14 4/11/11 37/13/12
f 37/18/12 36/8/8 21/14/13
f 6/20/17 5/15/14 38/17/15
f 38/22/15 37/18/12 22/19/16
f 7/74/53 6/20/17 39/21/18
f 39/138/18 38/22/15 23/23/19
f 7/74/53 39/21/18 8/25/21
f 39/138/18 23/23/19 40/27/20
f 8/25/21 40/24/20 9/29/24
f 40/27/20 24/26/22 41/31/23
f 9/29/24 41/28/23 10/33/27
f 41/31/23 25/30/25 42/35/26
f 43/40/30 11/36/29 42/38/26
f 27/42/32 43/39/30 26/34/28
f 12/44/34 11/36/29 44/41/31
f 44/46/31 43/39/30 28/43/33
f 13/81/37 12/44/34 45/45/35
f 45/51/35 44/46/31 29/47/36
f 14/53/40 13/48/37 46/50/38
f 46/55/38 45/51/35 30/52/39
f 15/58/44 14/53/40 47/54/41
f 47/60/41 46/55/38 31/56/42
f 48/62/45 16/57/43 47/54/41
f 32/63/47 48/59/45 31/56/42
f 33/139/1 1/61/46 48/62/45
f 48/59/45 32/63/47 33/1/1
f 49/85/63 1/61/46 50/65/48
f 3/70/6 51/66/49 2/68/3
f 4/11/11 52/69/50 3/70/6
f 5/137/14 53/71/51 4/11/11
f 6/20/17 54/72/52 5/15/14
f 54/72/52 6/20/17 55/75/54
f 56/76/55 55/75/54 8/25/21
f 57/77/56 56/76/55 9/29/24
f 58/94/57 57/77/56 10/33/27
f 59/79/58 58/78/57 11/36/29
f 60/80/59 59/79/58 12/44/34
f 61/99/61 60/80/59 13/81/37
f 14/53/40 62/82/60 13/48/37
f 62/82/60 14/53/40 63/84/62
f 64/86/64 63/84/62 16/57/43
f 16/57/43 1/61/46 64/86/64
f 65/102/76 49/85/63 66/87/65
f 51/66/49 67/88/66 50/67/48
f 68/90/67 67/88/66 52/69/50
f 69/140/68 68/90/67 53/71/51
f 70/141/83 69/91/68 54/72/52
f 70/141/83 54/72/52 71/92/69
f 72/142/85 71/92/69 56/76/55
f 72/142/85 56/76/55 73/93/70
f 73/93/70 57/77/56 74/95/71
f 59/79/58 75/96/72 58/78/57
f 76/98/73 75/96/72 60/80/59
f 77/143/74 76/98/73 61/99/61
f 78/144/93 77/100/74 62/82/60
f 78/144/93 62/82/60 79/101/75
f 80/145/95 79/101/75 64/86/64
f 80/145/95 64/86/64 65/102/76
f 65/134/76 66/103/65 81/105/78
f 66/103/65 67/106/66 82/104/77
f 68/110/67 84/108/80 67/106/66
f 69/112/68 85/109/81 68/110/67
f 70/113/83 86/111/82 69/112/68
f 86/111/82 70/113/83 87/115/84
f 71/114/69 72/116/85 87/115/84
f 72/116/85 73/118/70 88/117/86
f 73/118/70 74/120/71 89/119/87
f 74/120/71 75/122/72 90/121/88
f 76/125/73 92/124/90 75/122/72
f 92/124/90 76/125/73 93/127/91
f 78/129/93 94/128/92 77/126/74
f 94/128/92 78/129/93 95/131/94
f 79/130/75 80/132/95 95/131/94
f 80/132/95 65/134/76 96/133/96
