# Blender v2.70 (sub 0) OBJ File: 'mannequin.blend'
# www.blender.org
o Circle.010
v 0.246748 0.102466 -0.301932
v 0.000000 0.102466 -0.326809
v -0.246747 0.102466 -0.301932
v -0.455930 0.092994 -0.231089
v -0.595701 0.079733 -0.125064
v -0.644782 0.072155 0.000000
v -0.595701 0.079733 0.125064
v -0.455930 0.092994 0.231089
v -0.246747 0.102466 0.301932
v 0.000000 0.102466 0.326809
v 0.246748 0.102466 0.301932
v 0.455930 0.092994 0.231089
v 0.595701 0.079733 0.125064
v 0.644783 0.072155 0.000000
v 0.595701 0.079733 -0.125064
v 0.455930 0.092994 -0.231089
v 0.320370 0.703211 -0.385488
v 0.000001 0.688995 -0.421065
v -0.320369 0.703211 -0.385488
v -0.591965 0.745510 -0.284175
v -0.773440 0.797209 -0.132549
v -0.837165 0.848908 0.046306
v -0.773440 0.797209 0.225161
v -0.591965 0.745510 0.376788
v -0.320369 0.703211 0.478101
v 0.000000 0.688995 0.513677
v 0.320369 0.703211 0.478101
v 0.591965 0.745510 0.376787
v 0.773440 0.797209 0.225161
v 0.837165 0.848908 0.046306
v 0.773440 0.797209 -0.132549
v 0.591965 0.745510 -0.284175
v 0.304357 0.105230 -0.372426
v 0.000001 0.105230 -0.403111
v -0.304357 0.105230 -0.372426
v -0.562378 0.093547 -0.285042
v -0.734783 0.077190 -0.154264
v -0.795323 0.067843 0.000000
v -0.734783 0.077190 0.154264
v -0.562378 0.093547 0.285042
v -0.304357 0.105230 0.372426
v 0.000000 0.105230 0.403111
v 0.304357 0.105230 0.372426
v 0.562378 0.093547 0.285042
v 0.734783 0.077190 0.154264
v 0.795323 0.067843 0.000000
v 0.734783 0.077190 -0.154264
v 0.562378 0.093547 -0.285042
v 0.258755 0.713267 -0.342096
v 0.478116 0.747431 -0.250964
v 0.000000 0.713267 -0.374097
v -0.258754 0.713267 -0.342096
v -0.478116 0.747431 -0.250964
v -0.624689 0.789187 -0.114575
v -0.676158 0.830943 0.046306
v -0.624689 0.789187 0.207188
v -0.478116 0.747431 0.343577
v -0.258754 0.713267 0.434709
v 0.000000 0.713267 0.466710
v 0.258755 0.713267 0.434709
v 0.478116 0.747431 0.343577
v 0.624689 0.789187 0.207188
v 0.676158 0.830943 0.046306
v 0.624689 0.789187 -0.114575
vt 0.429861 0.210353
vt 0.403600 0.184079
vt 0.449637 0.082904
vt 0.409662 0.309509
vt 0.378685 0.431205
vt 0.378685 0.306386
vt 0.409662 0.410702
vt 0.429861 0.498526
vt 0.403600 0.539534
vt 0.449637 0.614880
vt 0.467184 0.559610
vt 0.515949 0.584655
vt 0.509787 0.645772
vt 0.568732 0.569848
vt 0.574894 0.627508
vt 0.617497 0.517444
vt 0.635044 0.562868
vt 0.654820 0.435419
vt 0.681081 0.461693
vt 0.675019 0.336263
vt 0.705996 0.214567
vt 0.705996 0.339386
vt 0.675019 0.235069
vt 0.654820 0.147246
vt 0.681081 0.106238
vt 0.617497 0.086162
vt 0.635044 0.030892
vt 0.568732 0.061117
vt 0.574894 0.000000
vt 0.515949 0.075924
vt 0.509788 0.018264
vt 0.467184 0.128328
vt 0.998681 1.121688
vt 0.732523 1.119928
vt 0.734704 1.020173
vt 0.730786 0.898817
vt 0.968955 0.890695
vt 0.978835 1.018038
vt 0.969805 0.759075
vt 0.726126 0.774153
vt 0.716672 0.665342
vt 0.981996 0.643186
vt 0.998681 0.560863
vt 0.705996 0.967110
vt 0.668943 0.965297
vt 0.661347 0.645772
vt 0.603279 0.960246
vt 0.586904 0.665063
vt 0.519026 0.956890
vt 0.493750 0.689189
vt 0.740386 0.455004
vt 0.988244 0.457066
vt 1.000000 0.560863
vt 0.740351 0.333555
vt 0.982730 0.329636
vt 0.983567 0.198004
vt 0.735944 0.208891
vt 0.723142 0.100183
vt 0.991359 0.082180
vt 0.705996 0.023896
vt 1.000000 0.000000
vt 0.374054 0.692714
vt 0.378685 0.729115
vt 0.059052 0.724595
vt 0.378685 0.794763
vt 0.084346 0.797513
vt 0.378230 0.879393
vt 0.112127 0.889386
vt 0.350486 0.113778
vt 0.378685 0.228315
vt 0.358599 0.251422
vt 0.360161 0.357795
vt 0.350449 0.488232
vt 0.335793 0.461351
vt 0.298312 0.594042
vt 0.289914 0.546402
vt 0.229959 0.661101
vt 0.229066 0.599951
vt 0.155764 0.679196
vt 0.162487 0.613843
vt 0.098713 0.585790
vt 0.085042 0.645358
vt 0.030541 0.564952
vt 0.049053 0.520235
vt 0.000589 0.450225
vt 0.021092 0.427163
vt 0.000000 0.318668
vt 0.019531 0.320790
vt 0.028826 0.190308
vt 0.043898 0.217234
vt 0.082716 0.084688
vt 0.091193 0.132337
vt 0.153211 0.017862
vt 0.153771 0.078977
vt 0.229549 0.000000
vt 0.222082 0.065272
vt 0.284125 0.093138
vt 0.298128 0.033606
vt 0.332054 0.158504
vt 0.705996 0.588869
vt 0.705996 0.673022
vt 0.731351 0.554942
vt 0.078976 0.679196
vt 0.378685 0.359807
vn -0.006679 -0.998981 -0.044632
vn 0.143925 -0.669057 -0.729118
vn 0.321757 -0.655843 -0.682852
vn 0.000000 -0.999344 -0.036205
vn -0.143925 -0.669057 -0.729118
vn 0.000000 -0.682455 -0.730888
vn 0.006679 -0.998981 -0.044632
vn 0.028163 -0.997436 -0.065786
vn -0.321757 -0.655843 -0.682852
vn -0.577502 -0.655965 -0.485946
vn 0.032419 -0.997188 -0.067563
vn 0.028634 -0.999590 -0.000000
vn -0.738487 -0.674154 -0.010102
vn 0.032419 -0.997188 0.067563
vn -0.565233 -0.683493 0.461837
vn 0.028163 -0.997436 0.065786
vn -0.306497 -0.700186 0.644795
vn 0.006679 -0.998981 0.044632
vn -0.135960 -0.721885 0.678487
vn 0.000000 -0.999344 0.036205
vn 0.135960 -0.721885 0.678487
vn 0.000000 -0.736869 0.675985
vn -0.006679 -0.998981 0.044632
vn -0.028163 -0.997436 0.065786
vn 0.306497 -0.700186 0.644795
vn -0.032419 -0.997188 0.067563
vn 0.565233 -0.683493 0.461837
vn -0.028634 -0.999590 -0.000000
vn 0.738487 -0.674154 -0.010102
vn -0.032419 -0.997188 -0.067563
vn 0.577502 -0.655965 -0.485946
vn -0.028163 -0.997436 -0.065786
vn 0.328227 0.575396 -0.749107
vn 0.000000 0.480087 -0.877194
vn 0.145940 0.558123 -0.816797
vn -0.145940 0.558123 -0.816797
vn -0.328227 0.575396 -0.749107
vn -0.586596 0.593982 -0.550493
vn -0.707633 0.706504 0.007752
vn -0.598651 0.564135 0.568621
vn -0.347331 0.523484 0.777978
vn -0.158971 0.493515 0.855068
vn 0.000000 0.408918 0.912534
vn 0.158971 0.493515 0.855068
vn 0.347331 0.523484 0.777978
vn 0.598651 0.564135 0.568621
vn 0.707633 0.706504 0.007752
vn 0.586596 0.593982 -0.550493
vn 0.002910 0.975963 -0.217919
vn 0.000000 0.900370 -0.435124
vn -0.002910 0.975963 -0.217919
vn 0.056634 0.969462 -0.238611
vn 0.084088 0.971392 -0.222097
vn 0.110891 0.993833 -0.000000
vn 0.084088 0.971392 0.222097
vn 0.056634 0.969463 0.238611
vn -0.002910 0.975963 0.217919
vn 0.000000 0.900370 0.435125
vn 0.002910 0.975962 0.217919
vn -0.056634 0.969462 0.238612
vn -0.084088 0.971392 0.222097
vn -0.110891 0.993833 0.000000
vn -0.084088 0.971392 -0.222097
vn -0.056634 0.969462 -0.238611
s 1
f 1/1/1 33/2/2 48/3/3
f 33/2/2 1/1/1 2/4/4
f 35/5/5 34/6/6 2/4/4
f 3/7/7 4/8/8 36/9/9
f 37/10/10 36/9/9 4/8/8
f 5/11/11 6/12/12 38/13/13
f 38/13/13 6/12/12 7/14/14
f 39/15/15 7/14/14 8/16/16
f 40/17/17 8/16/16 9/18/18
f 41/19/19 9/18/18 10/20/20
f 43/21/21 42/22/22 10/20/20
f 11/23/23 12/24/24 44/25/25
f 12/24/24 13/26/26 45/27/27
f 13/26/26 14/28/28 46/29/29
f 46/29/29 14/28/28 15/30/30
f 47/31/31 15/30/30 16/32/32
f 32/33/33 48/34/3 33/35/2
f 34/36/6 18/37/34 17/38/35
f 19/39/36 18/37/34 34/36/6
f 35/40/5 36/41/9 20/42/37
f 21/43/38 20/42/37 36/41/9
f 37/44/10 38/45/13 22/46/39
f 39/47/15 23/48/40 22/46/39
f 40/49/17 24/50/41 23/48/40
f 41/51/19 25/52/42 24/53/41
f 42/54/22 26/55/43 25/52/42
f 27/56/44 26/55/43 42/54/22
f 43/57/21 44/58/25 28/59/45
f 44/58/25 45/60/27 29/61/46
f 45/62/27 46/63/29 30/64/47
f 47/65/31 31/66/48 30/64/47
f 48/67/3 32/68/33 31/66/48
f 32/69/33 17/70/35 49/71/49
f 51/72/50 49/71/49 17/70/35
f 19/73/36 52/74/51 51/72/50
f 20/75/37 53/76/52 52/74/51
f 21/77/38 54/78/53 53/76/52
f 22/79/39 55/80/54 54/78/53
f 56/81/55 55/80/54 22/79/39
f 23/82/40 24/83/41 57/84/56
f 24/83/41 25/85/42 58/86/57
f 25/85/42 26/87/43 59/88/58
f 27/89/44 60/90/59 59/88/58
f 28/91/45 61/92/60 60/90/59
f 29/93/46 62/94/61 61/92/60
f 30/95/47 63/96/62 62/94/61
f 64/97/63 63/96/62 30/95/47
f 31/98/48 32/69/33 50/99/64
f 16/32/32 1/1/1 48/3/3
f 34/6/6 33/2/2 2/4/4
f 3/7/7 35/5/5 2/4/4
f 35/5/5 3/7/7 36/9/9
f 5/11/11 37/10/10 4/8/8
f 37/10/10 5/11/11 38/13/13
f 39/15/15 38/13/13 7/14/14
f 40/17/17 39/15/15 8/16/16
f 41/19/19 40/17/17 9/18/18
f 42/22/22 41/19/19 10/20/20
f 11/23/23 43/21/21 10/20/20
f 43/21/21 11/23/23 44/25/25
f 44/25/25 12/24/24 45/27/27
f 45/27/27 13/26/26 46/29/29
f 47/31/31 46/29/29 15/30/30
f 48/3/3 47/31/31 16/32/32
f 17/38/35 32/33/33 33/35/2
f 33/35/2 34/36/6 17/38/35
f 35/40/5 19/39/36 34/36/6
f 19/39/36 35/40/5 20/42/37
f 37/100/10 21/43/38 36/41/9
f 21/101/38 37/44/10 22/46/39
f 38/45/13 39/47/15 22/46/39
f 39/47/15 40/49/17 23/48/40
f 40/102/17 41/51/19 24/53/41
f 41/51/19 42/54/22 25/52/42
f 43/57/21 27/56/44 42/54/22
f 27/56/44 43/57/21 28/59/45
f 28/59/45 44/58/25 29/61/46
f 29/103/46 45/62/27 30/64/47
f 46/63/29 47/65/31 30/64/47
f 47/65/31 48/67/3 31/66/48
f 50/99/64 32/69/33 49/71/49
f 18/104/34 51/72/50 17/70/35
f 18/104/34 19/73/36 51/72/50
f 19/73/36 20/75/37 52/74/51
f 20/75/37 21/77/38 53/76/52
f 21/77/38 22/79/39 54/78/53
f 23/82/40 56/81/55 22/79/39
f 56/81/55 23/82/40 57/84/56
f 57/84/56 24/83/41 58/86/57
f 58/86/57 25/85/42 59/88/58
f 26/87/43 27/89/44 59/88/58
f 27/89/44 28/91/45 60/90/59
f 28/91/45 29/93/46 61/92/60
f 29/93/46 30/95/47 62/94/61
f 31/98/48 64/97/63 30/95/47
f 64/97/63 31/98/48 50/99/64
